<svg width="1499" height="989" viewBox="0 0 1499 989" fill="none" xmlns="http://www.w3.org/2000/svg">
<g clip-path="url(#clip0_121_5)">
<path d="M0 128.551L50.6333 125.174C101.267 121.796 202.533 115.041 303.8 113.352C405.067 111.663 506.333 115.041 607.6 118.418C708.867 121.796 810.133 125.174 911.4 128.551C1012.67 131.929 1113.93 135.307 1215.2 125.174C1316.47 115.041 1417.73 91.3973 1468.37 79.5755L1519 67.7538V-25.1312H1468.37C1417.73 -25.1312 1316.47 -25.1312 1215.2 -25.1312C1113.93 -25.1312 1012.67 -25.1312 911.4 -25.1312C810.133 -25.1312 708.867 -25.1312 607.6 -25.1312C506.333 -25.1312 405.067 -25.1312 303.8 -25.1312C202.533 -25.1312 101.267 -25.1312 50.6333 -25.1312H0V128.551Z" fill="#5A189A"/>
<path d="M0 209.615L50.6333 212.992C101.267 216.37 202.533 223.125 303.8 221.436C405.067 219.748 506.333 209.615 607.6 209.615C708.867 209.615 810.133 219.748 911.4 226.503C1012.67 233.258 1113.93 236.636 1215.2 226.503C1316.47 216.37 1417.73 192.726 1468.37 180.905L1519 169.083V64.3762L1468.37 76.198C1417.73 88.0197 1316.47 111.663 1215.2 121.796C1113.93 131.929 1012.67 128.551 911.4 125.174C810.133 121.796 708.867 118.418 607.6 115.041C506.333 111.663 405.067 108.286 303.8 109.974C202.533 111.663 101.267 118.418 50.6333 121.796L0 125.174V209.615Z" fill="#561695"/>
<path d="M0 331.21L50.6333 332.898C101.267 334.587 202.533 337.965 303.8 332.898C405.067 327.832 506.333 314.321 607.6 316.01C708.867 317.699 810.133 334.587 911.4 341.342C1012.67 348.098 1113.93 344.72 1215.2 326.143C1316.47 307.566 1417.73 273.79 1468.37 256.902L1519 240.013V165.705L1468.37 177.527C1417.73 189.349 1316.47 212.992 1215.2 223.125C1113.93 233.258 1012.67 229.88 911.4 223.125C810.133 216.37 708.867 206.237 607.6 206.237C506.333 206.237 405.067 216.37 303.8 218.059C202.533 219.748 101.267 212.992 50.6333 209.615L0 206.237V331.21Z" fill="#531390"/>
<path d="M0 604.798L50.6333 609.865C101.267 614.931 202.533 625.064 303.8 618.309C405.067 611.553 506.333 587.91 607.6 594.665C708.867 601.421 810.133 638.575 911.4 631.819C1012.67 625.064 1113.93 574.399 1215.2 564.267C1316.47 554.134 1417.73 584.532 1468.37 599.732L1519 614.931V236.636L1468.37 253.524C1417.73 270.412 1316.47 304.188 1215.2 322.765C1113.93 341.343 1012.67 344.72 911.4 337.965C810.133 331.21 708.867 314.321 607.6 312.633C506.333 310.944 405.067 324.454 303.8 329.521C202.533 334.587 101.267 331.21 50.6333 329.521L0 327.832V604.798Z" fill="#4F118C"/>
<path d="M0 716.26L50.6333 721.327C101.267 726.393 202.533 736.526 303.8 729.771C405.067 723.015 506.333 699.372 607.6 706.127C708.867 712.883 810.133 750.037 911.4 743.281C1012.67 736.526 1113.93 685.861 1215.2 677.417C1316.47 668.973 1417.73 702.75 1468.37 719.638L1519 736.526V611.553L1468.37 596.354C1417.73 581.155 1316.47 550.756 1215.2 560.889C1113.93 571.022 1012.67 621.686 911.4 628.442C810.133 635.197 708.867 598.043 607.6 591.288C506.333 584.532 405.067 608.176 303.8 614.931C202.533 621.686 101.267 611.553 50.6333 606.487L0 601.421V716.26Z" fill="#4C0E87"/>
<path d="M0 989.849H50.6333C101.267 989.849 202.533 989.849 303.8 989.849C405.067 989.849 506.333 989.849 607.6 989.849C708.867 989.849 810.133 989.849 911.4 989.849C1012.67 989.849 1113.93 989.849 1215.2 989.849C1316.47 989.849 1417.73 989.849 1468.37 989.849H1519V733.148L1468.37 716.26C1417.73 699.372 1316.47 665.596 1215.2 674.04C1113.93 682.484 1012.67 733.148 911.4 739.904C810.133 746.659 708.867 709.505 607.6 702.75C506.333 695.994 405.067 719.638 303.8 726.393C202.533 733.148 101.267 723.016 50.6333 717.949L0 712.883V989.849Z" fill="#480B83"/>
</g>
<defs>
<clipPath id="clip0_121_5">
<rect width="1519" height="1013.29" fill="white" transform="translate(0 -25.1312)"/>
</clipPath>
</defs>
</svg>
