<svg width="1512" height="1469" viewBox="0 0 1512 1469" fill="none" xmlns="http://www.w3.org/2000/svg">
<g clip-path="url(#clip0_64_394)">
<path d="M1512 0H-7V1471.69H1512V0Z" fill="#480B83"/>
<path d="M-7 147.703L43.6333 129.863C94.2667 111.832 195.533 76.1531 296.8 62.342C398.067 48.5308 499.333 56.971 600.6 78.0714C701.867 99.1717 803.133 132.932 904.4 156.718C1005.67 180.312 1106.93 193.74 1208.2 191.822C1309.47 189.903 1410.73 172.639 1461.37 164.007L1512 155.375V0H1461.37C1410.73 0 1309.47 0 1208.2 0C1106.93 0 1005.67 0 904.4 0C803.133 0 701.867 0 600.6 0C499.333 0 398.067 0 296.8 0C195.533 0 94.2667 0 43.6333 0H-7V147.703Z" fill="#5A189A"/>
<g clip-path="url(#clip1_64_394)">
<path d="M-7 128.551L43.6333 125.174C94.2667 121.796 195.533 115.041 296.8 113.352C398.067 111.663 499.333 115.041 600.6 118.418C701.867 121.796 803.133 125.174 904.4 128.551C1005.67 131.929 1106.93 135.307 1208.2 125.174C1309.47 115.041 1410.73 91.3973 1461.37 79.5755L1512 67.7538V-25.1312H1461.37C1410.73 -25.1312 1309.47 -25.1312 1208.2 -25.1312C1106.93 -25.1312 1005.67 -25.1312 904.4 -25.1312C803.133 -25.1312 701.867 -25.1312 600.6 -25.1312C499.333 -25.1312 398.067 -25.1312 296.8 -25.1312C195.533 -25.1312 94.2667 -25.1312 43.6333 -25.1312H-7V128.551Z" fill="#5A189A"/>
<path d="M-7 209.615L43.6333 212.992C94.2667 216.37 195.533 223.125 296.8 221.436C398.067 219.748 499.333 209.615 600.6 209.615C701.867 209.615 803.133 219.748 904.4 226.503C1005.67 233.258 1106.93 236.636 1208.2 226.503C1309.47 216.37 1410.73 192.726 1461.37 180.905L1512 169.083V64.3762L1461.37 76.198C1410.73 88.0197 1309.47 111.663 1208.2 121.796C1106.93 131.929 1005.67 128.551 904.4 125.174C803.133 121.796 701.867 118.418 600.6 115.041C499.333 111.663 398.067 108.286 296.8 109.974C195.533 111.663 94.2667 118.418 43.6333 121.796L-7 125.174V209.615Z" fill="#561695"/>
<path d="M-7 331.21L43.6333 332.898C94.2667 334.587 195.533 337.965 296.8 332.898C398.067 327.832 499.333 314.321 600.6 316.01C701.867 317.699 803.133 334.587 904.4 341.342C1005.67 348.098 1106.93 344.72 1208.2 326.143C1309.47 307.566 1410.73 273.79 1461.37 256.902L1512 240.013V165.705L1461.37 177.527C1410.73 189.349 1309.47 212.992 1208.2 223.125C1106.93 233.258 1005.67 229.88 904.4 223.125C803.133 216.37 701.867 206.237 600.6 206.237C499.333 206.237 398.067 216.37 296.8 218.059C195.533 219.748 94.2667 212.992 43.6333 209.615L-7 206.237V331.21Z" fill="#531390"/>
<path d="M-7 604.798L43.6333 609.865C94.2667 614.931 195.533 625.064 296.8 618.309C398.067 611.553 499.333 587.91 600.6 594.665C701.867 601.421 803.133 638.575 904.4 631.819C1005.67 625.064 1106.93 574.399 1208.2 564.267C1309.47 554.134 1410.73 584.532 1461.37 599.732L1512 614.931V236.636L1461.37 253.524C1410.73 270.412 1309.47 304.188 1208.2 322.765C1106.93 341.342 1005.67 344.72 904.4 337.965C803.133 331.21 701.867 314.321 600.6 312.633C499.333 310.944 398.067 324.454 296.8 329.521C195.533 334.587 94.2667 331.21 43.6333 329.521L-7 327.832V604.798Z" fill="#4F118C"/>
<path d="M-7 716.26L43.6333 721.327C94.2667 726.393 195.533 736.526 296.8 729.771C398.067 723.015 499.333 699.372 600.6 706.127C701.867 712.883 803.133 750.037 904.4 743.281C1005.67 736.526 1106.93 685.861 1208.2 677.417C1309.47 668.973 1410.73 702.75 1461.37 719.638L1512 736.526V611.553L1461.37 596.354C1410.73 581.155 1309.47 550.756 1208.2 560.889C1106.93 571.022 1005.67 621.686 904.4 628.442C803.133 635.197 701.867 598.043 600.6 591.288C499.333 584.532 398.067 608.176 296.8 614.931C195.533 621.686 94.2667 611.553 43.6333 606.487L-7 601.421V716.26Z" fill="#4C0E87"/>
<path d="M-7 989.849H43.6333C94.2667 989.849 195.533 989.849 296.8 989.849C398.067 989.849 499.333 989.849 600.6 989.849C701.867 989.849 803.133 989.849 904.4 989.849C1005.67 989.849 1106.93 989.849 1208.2 989.849C1309.47 989.849 1410.73 989.849 1461.37 989.849H1512V733.148L1461.37 716.26C1410.73 699.372 1309.47 665.596 1208.2 674.04C1106.93 682.484 1005.67 733.148 904.4 739.904C803.133 746.659 701.867 709.505 600.6 702.75C499.333 695.994 398.067 719.638 296.8 726.393C195.533 733.148 94.2667 723.016 43.6333 717.949L-7 712.883V989.849Z" fill="#480B83"/>
</g>
</g>
<defs>
<clipPath id="clip0_64_394">
<rect width="1519" height="1532" fill="white" transform="translate(-7)"/>
</clipPath>
<clipPath id="clip1_64_394">
<rect width="1519" height="1013.29" fill="white" transform="translate(-7 -25.1312)"/>
</clipPath>
</defs>
</svg>
