<svg width="1512" height="960" viewBox="0 0 1512 960" fill="none" xmlns="http://www.w3.org/2000/svg">
<g clip-path="url(#clip0_64_167)">
<path d="M1512 -181H-3V960H1512V-181Z" fill="#5A189A"/>
<path d="M707.367 83.205L754.5 102.982L774.195 150.313L754.5 197.643L707.367 217.42L660.233 197.643L640.538 150.313L660.233 102.982L707.367 83.205Z" stroke="#6D51A5" stroke-width="3"/>
<path d="M414.467 378.513L440.727 389.331L451.5 415.701L440.727 442.071L414.467 452.889L388.207 442.071L377.433 415.701L388.207 389.331L414.467 378.513Z" stroke="#6D51A5" stroke-width="3"/>
<path d="M1212.37 552.621L1231.39 560.566L1239.3 579.667L1231.39 598.768L1212.37 606.713L1193.34 598.768L1185.43 579.667L1193.34 560.566L1212.37 552.621Z" stroke="#6D51A5" stroke-width="3"/>
<path d="M444.767 522.194L488.87 540.45L507.05 584.738L488.87 629.026L444.767 647.282L400.663 629.026L382.483 584.738L400.663 540.45L444.767 522.194Z" stroke="#6D51A5" stroke-width="3"/>
<path d="M1156.82 92.84L1163.89 95.8827L1166.92 102.982L1163.89 110.082L1156.82 113.125L1149.75 110.082L1146.72 102.982L1149.75 95.8827L1156.82 92.84Z" stroke="#6D51A5" stroke-width="3"/>
<path d="M1382.38 843.365L1390.63 846.914L1394.17 855.197L1390.63 863.48L1382.38 867.03L1374.14 863.48L1370.6 855.197L1374.14 846.914L1382.38 843.365Z" stroke="#6D51A5" stroke-width="3"/>
<path d="M138.4 136.79L150.352 141.692L155.233 153.693L150.352 165.695L138.4 170.597L126.448 165.695L121.567 153.693L126.448 141.692L138.4 136.79Z" stroke="#6D51A5" stroke-width="3"/>
<path d="M507.05 60.723L522.537 67.1464L528.933 82.6978L522.537 98.2493L507.05 104.673L491.563 98.2493L485.167 82.6978L491.563 67.1464L507.05 60.723Z" stroke="#6D51A5" stroke-width="3"/>
<path d="M256.233 385.274L279.968 395.247L289.9 419.082L279.968 442.916L256.233 452.889L232.498 442.916L222.567 419.082L232.498 395.247L256.233 385.274Z" stroke="#6D51A5" stroke-width="3"/>
<path d="M914.417 660.805L951.282 676.187L966.6 713.206L951.282 750.225L914.417 765.607L877.552 750.225L862.233 713.206L877.552 676.187L914.417 660.805Z" stroke="#6D51A5" stroke-width="3"/>
<path d="M823.517 30.2964L840.182 37.2269L847.083 53.9616L840.182 70.6962L823.517 77.6267L806.852 70.6962L799.95 53.9616L806.852 37.2269L823.517 30.2964Z" stroke="#6D51A5" stroke-width="3"/>
<path d="M719.15 476.554L758.372 492.951L774.7 532.336L758.372 571.722L719.15 588.119L679.928 571.722L663.6 532.336L679.928 492.951L719.15 476.554Z" stroke="#6D51A5" stroke-width="3"/>
<path d="M1017.1 412.32L1027.87 416.715L1032.25 427.533L1027.87 438.352L1017.1 442.747L1006.33 438.352L1001.95 427.533L1006.33 416.715L1017.1 412.32Z" stroke="#6D51A5" stroke-width="3"/>
<path d="M611.417 -42.3896L632.795 -33.4307L641.717 -11.963L632.795 9.50474L611.417 18.4637L590.038 9.50474L581.117 -11.963L590.038 -33.4307L611.417 -42.3896Z" stroke="#6D51A5" stroke-width="3"/>
<path d="M842.033 222.999L887.315 241.762L906 287.233L887.315 332.704L842.033 351.467L796.752 332.704L778.067 287.233L796.752 241.762L842.033 222.999Z" stroke="#6D51A5" stroke-width="3"/>
<path d="M959.867 550.93L965.758 553.466L968.283 559.382L965.758 565.299L959.867 567.834L953.975 565.299L951.45 559.382L953.975 553.466L959.867 550.93Z" stroke="#6D51A5" stroke-width="3"/>
<path d="M752.817 723.348L763.59 727.743L767.967 738.562L763.59 749.38L752.817 753.775L742.043 749.38L737.667 738.562L742.043 727.743L752.817 723.348Z" stroke="#6D51A5" stroke-width="3"/>
<path d="M1377.33 481.625L1421.44 499.881L1439.62 544.169L1421.44 588.457L1377.33 606.713L1333.23 588.457L1315.05 544.169L1333.23 499.881L1377.33 481.625Z" stroke="#6D51A5" stroke-width="3"/>
<path d="M1109.68 792.653L1121.64 797.556L1126.52 809.557L1121.64 821.559L1109.68 826.461L1097.73 821.559L1092.85 809.557L1097.73 797.556L1109.68 792.653Z" stroke="#6D51A5" stroke-width="3"/>
<path d="M444.767 708.135L490.048 726.898L508.733 772.369L490.048 817.84L444.767 836.603L399.485 817.84L380.8 772.369L399.485 726.898L444.767 708.135Z" stroke="#6D51A5" stroke-width="3"/>
<path d="M358.917 167.216L383.83 177.697L394.267 202.714L383.83 227.732L358.917 238.212L334.003 227.732L323.567 202.714L334.003 177.697L358.917 167.216Z" stroke="#6D51A5" stroke-width="3"/>
<path d="M67.7 287.233L96.3167 299.065L108.1 327.802L96.3167 356.538L67.7 368.37L39.0833 356.538L27.3 327.802L39.0833 299.065L67.7 287.233Z" stroke="#6D51A5" stroke-width="3"/>
<path d="M66.0167 785.892L94.6333 797.725L106.417 826.461L94.6333 855.197L66.0167 867.03L37.4 855.197L25.6167 826.461L37.4 797.725L66.0167 785.892Z" stroke="#6D51A5" stroke-width="3"/>
<path d="M1437.93 77.6267L1462.85 88.107L1473.28 113.124L1462.85 138.142L1437.93 148.622L1413.02 138.142L1402.58 113.124L1413.02 88.107L1437.93 77.6267Z" stroke="#6D51A5" stroke-width="3"/>
<path d="M209.1 831.532L244.787 846.407L259.6 882.243L244.787 918.079L209.1 932.954L173.413 918.079L158.6 882.243L173.413 846.407L209.1 831.532Z" stroke="#6D51A5" stroke-width="3"/>
<path d="M1373.97 324.421L1395.35 333.38L1404.27 354.847L1395.35 376.315L1373.97 385.274L1352.59 376.315L1343.67 354.847L1352.59 333.38L1373.97 324.421Z" stroke="#6D51A5" stroke-width="3"/>
<path d="M609.733 195.953L644.242 210.321L658.55 244.973L644.242 279.626L609.733 293.994L575.225 279.626L560.917 244.973L575.225 210.321L609.733 195.953Z" stroke="#6D51A5" stroke-width="3"/>
<path d="M835.3 395.416L861.56 406.235L872.333 432.605L861.56 458.974L835.3 469.793L809.04 458.974L798.267 432.605L809.04 406.235L835.3 395.416Z" stroke="#6D51A5" stroke-width="3"/>
<path d="M798.267 823.08L833.953 837.955L848.767 873.791L833.953 909.627L798.267 924.502L762.58 909.627L747.767 873.791L762.58 837.955L798.267 823.08Z" stroke="#6D51A5" stroke-width="3"/>
<path d="M1224.15 331.182L1252.77 343.015L1264.55 371.751L1252.77 400.487L1224.15 412.32L1195.53 400.487L1183.75 371.751L1195.53 343.015L1224.15 331.182Z" stroke="#6D51A5" stroke-width="3"/>
<path d="M1010.37 60.723L1037.81 72.0485L1049.08 99.6015L1037.81 127.155L1010.37 138.48L982.928 127.155L971.65 99.6015L982.928 72.0485L1010.37 60.723Z" stroke="#6D51A5" stroke-width="3"/>
<g clip-path="url(#clip1_64_167)">
<path opacity="0.25" d="M1508.02 963L1508.02 916.71C1448.04 894.51 1378.01 884.54 1309.72 888.71C1221.42 894.08 1138.62 922.02 1050.18 926.21C957.51 930.57 865.014 909.33 776.334 890.95C689.398 872.95 602.763 866.07 513.53 877.87C468.161 883.87 425.867 895.71 382.443 907.21C266.177 938 111.168 977.29 1.98027 910.53L1.98028 963L1508.02 963Z" fill="#48137B"/>
<path opacity="0.5" d="M1508.02 963L1508.02 947.19C1491.7 926.08 1473.33 906.14 1448.16 890.95C1383.25 851.73 1300.94 852 1226.16 871.42C1187.07 881.57 1150.75 897.49 1113.62 911.22C1062.27 930.22 1007.28 957.22 949.427 960.89C903.92 963.74 860.446 951.47 825.681 929.33C785.809 903.94 747.468 867.33 695.623 856.33C644.869 845.54 593.526 863.02 546.111 880.61C498.696 898.2 451.783 919.61 399.373 923.66C324.41 929.51 257.203 900.78 187.398 884.82C149.496 876.16 113.352 878.65 78.0978 892.32C49.9475 903.21 17.8564 919.25 1.98027 941.56L1.98028 963L1508.02 963Z" fill="#48137B"/>
<path d="M1508.02 963L1508.02 957.37C1319.85 904 1113.82 891.68 910.835 920.43C856.869 928.07 805.124 940.55 750.681 946.89C676.634 955.52 609.515 934.65 542.898 911.49C468.939 885.78 396.06 867.76 314.232 873C205.634 880 97.7892 918.71 1.98028 957.81L1.98028 963L1508.02 963Z" fill="#48137B"/>
</g>
<g clip-path="url(#clip2_64_167)">
<path d="M705.475 798.76C704.504 799.191 703.462 799.483 702.366 799.615C703.497 798.936 704.343 797.867 704.746 796.607C703.684 797.241 702.521 797.687 701.309 797.926C700.493 797.052 699.413 796.472 698.237 796.278C697.06 796.083 695.852 796.284 694.8 796.849C693.749 797.414 692.913 798.312 692.421 799.403C691.93 800.495 691.812 801.718 692.084 802.884C689.932 802.775 687.826 802.214 685.904 801.235C683.981 800.257 682.286 798.884 680.926 797.205C680.461 798.01 680.194 798.943 680.194 799.937C680.193 800.832 680.413 801.713 680.833 802.502C681.253 803.291 681.861 803.964 682.602 804.461C681.742 804.434 680.902 804.201 680.15 803.781V803.851C680.15 805.106 680.582 806.323 681.374 807.294C682.165 808.265 683.267 808.932 684.492 809.18C683.695 809.397 682.859 809.429 682.047 809.274C682.393 810.354 683.067 811.298 683.973 811.975C684.88 812.651 685.975 813.026 687.105 813.047C685.187 814.558 682.819 815.378 680.381 815.374C679.949 815.374 679.518 815.349 679.089 815.298C681.563 816.896 684.444 817.744 687.386 817.74C697.345 817.74 702.789 809.459 702.789 802.277C702.789 802.044 702.783 801.808 702.773 801.575C703.832 800.806 704.746 799.854 705.472 798.763L705.475 798.76V798.76Z" fill="white"/>
</g>
<g clip-path="url(#clip3_64_167)">
<path d="M764.191 798.241C762.413 797.436 760.507 796.841 758.514 796.502C758.497 796.499 758.478 796.501 758.462 796.509C758.445 796.516 758.432 796.529 758.422 796.544C758.178 796.975 757.906 797.536 757.716 797.979C755.602 797.662 753.453 797.662 751.34 797.979C751.127 797.488 750.888 797.009 750.623 796.544C750.614 796.528 750.6 796.516 750.584 796.508C750.567 796.5 750.549 796.497 750.531 796.5C748.539 796.838 746.633 797.433 744.854 798.24C744.839 798.246 744.826 798.257 744.817 798.271C741.201 803.609 740.209 808.814 740.696 813.955C740.698 813.967 740.702 813.979 740.708 813.99C740.714 814.001 740.722 814.011 740.732 814.019C742.843 815.562 745.197 816.737 747.697 817.495C747.714 817.501 747.733 817.501 747.75 817.495C747.767 817.49 747.783 817.479 747.794 817.465C748.332 816.743 748.809 815.977 749.219 815.175C749.225 815.164 749.228 815.152 749.229 815.139C749.229 815.127 749.227 815.115 749.223 815.103C749.218 815.092 749.211 815.081 749.202 815.073C749.193 815.064 749.183 815.058 749.171 815.054C748.421 814.77 747.693 814.427 746.996 814.029C746.983 814.022 746.973 814.012 746.965 814C746.957 813.987 746.953 813.973 746.952 813.959C746.951 813.944 746.954 813.93 746.96 813.917C746.966 813.904 746.975 813.892 746.987 813.883C747.133 813.775 747.279 813.662 747.419 813.549C747.431 813.538 747.447 813.532 747.463 813.53C747.479 813.528 747.495 813.53 747.509 813.537C752.073 815.595 757.015 815.595 761.525 813.537C761.54 813.53 761.556 813.527 761.573 813.529C761.589 813.531 761.604 813.537 761.617 813.547C761.756 813.662 761.902 813.775 762.049 813.883C762.061 813.892 762.07 813.903 762.076 813.916C762.083 813.929 762.086 813.944 762.085 813.958C762.084 813.973 762.08 813.987 762.072 813.999C762.065 814.011 762.055 814.022 762.042 814.029C761.347 814.431 760.625 814.77 759.866 815.052C759.854 815.057 759.843 815.063 759.835 815.072C759.826 815.081 759.819 815.091 759.814 815.103C759.81 815.114 759.808 815.127 759.808 815.139C759.809 815.152 759.812 815.164 759.818 815.175C760.236 815.976 760.715 816.739 761.242 817.464C761.253 817.479 761.268 817.49 761.285 817.496C761.303 817.502 761.322 817.502 761.339 817.497C763.843 816.74 766.201 815.564 768.314 814.019C768.324 814.011 768.333 814.002 768.339 813.991C768.346 813.98 768.35 813.968 768.351 813.956C768.932 808.013 767.377 802.849 764.227 798.273C764.219 798.258 764.206 798.247 764.191 798.241ZM749.901 810.824C748.527 810.824 747.394 809.577 747.394 808.048C747.394 806.517 748.505 805.271 749.901 805.271C751.307 805.271 752.43 806.528 752.408 808.048C752.408 809.578 751.297 810.824 749.901 810.824V810.824ZM759.168 810.824C757.794 810.824 756.662 809.577 756.662 808.048C756.662 806.517 757.772 805.271 759.168 805.271C760.575 805.271 761.697 806.528 761.675 808.048C761.675 809.578 760.576 810.824 759.168 810.824V810.824Z" fill="white"/>
</g>
<g clip-path="url(#clip4_64_167)">
<path d="M817.108 793C809.408 793 803.163 799.27 803.163 807C803.163 814.73 809.408 821 817.108 821C824.807 821 831.052 814.73 831.052 807C831.052 799.27 824.811 793 817.108 793ZM810.042 807.47L810.101 807.376L813.731 801.678C813.743 801.659 813.76 801.644 813.78 801.634C813.8 801.624 813.822 801.62 813.844 801.621C813.866 801.623 813.888 801.631 813.906 801.643C813.924 801.656 813.939 801.674 813.948 801.694C814.552 803.058 815.077 804.754 814.831 805.81C814.729 806.244 814.442 806.832 814.118 807.376C814.076 807.455 814.031 807.533 813.982 807.608C813.97 807.625 813.954 807.638 813.936 807.647C813.918 807.657 813.897 807.661 813.877 807.66H810.15C810.128 807.661 810.106 807.655 810.087 807.644C810.068 807.633 810.052 807.616 810.041 807.597C810.03 807.577 810.025 807.555 810.025 807.533C810.026 807.511 810.033 807.489 810.044 807.47H810.042ZM826.211 809.43C826.211 809.455 826.204 809.48 826.191 809.5C826.178 809.521 826.158 809.538 826.136 809.548C825.853 809.668 824.892 810.114 824.492 810.67C823.472 812.096 822.694 814.135 820.951 814.135H813.683C813.069 814.134 812.462 814.012 811.895 813.775C811.329 813.539 810.814 813.192 810.381 812.756C809.948 812.319 809.605 811.802 809.371 811.232C809.138 810.662 809.018 810.052 809.02 809.436V809.352C809.02 809.284 809.075 809.228 809.145 809.228H813.195C813.276 809.228 813.334 809.302 813.328 809.382C813.298 809.646 813.348 809.918 813.474 810.164C813.713 810.654 814.213 810.96 814.751 810.96H816.757V809.388H814.772C814.749 809.388 814.726 809.381 814.706 809.369C814.686 809.357 814.67 809.339 814.659 809.319C814.649 809.298 814.644 809.274 814.646 809.251C814.647 809.228 814.655 809.205 814.668 809.186L814.742 809.081C814.928 808.812 815.196 808.398 815.463 807.924C815.644 807.604 815.821 807.264 815.963 806.921C815.991 806.86 816.013 806.796 816.038 806.734C816.077 806.624 816.116 806.522 816.144 806.42C816.172 806.334 816.197 806.247 816.22 806.16C816.286 805.868 816.314 805.56 816.314 805.242C816.314 805.116 816.309 804.984 816.298 804.86C816.292 804.724 816.274 804.586 816.258 804.45C816.245 804.328 816.226 804.206 816.202 804.086C816.171 803.902 816.133 803.72 816.088 803.54L816.072 803.47C816.037 803.344 816.007 803.225 815.968 803.1C815.857 802.716 815.73 802.338 815.586 801.966C815.536 801.826 815.481 801.688 815.421 801.552C815.338 801.344 815.252 801.156 815.174 800.98C815.135 800.905 815.099 800.828 815.065 800.75C815.027 800.666 814.987 800.583 814.945 800.502C814.917 800.44 814.883 800.38 814.861 800.324L814.616 799.872C814.582 799.81 814.638 799.734 814.706 799.754L816.239 800.17H816.251L816.452 800.229L816.675 800.292L816.757 800.314V799.4C816.757 798.958 817.108 798.6 817.546 798.6C817.649 798.6 817.752 798.62 817.847 798.661C817.942 798.701 818.028 798.761 818.1 798.836C818.248 798.986 818.332 799.189 818.332 799.4V800.758L818.496 800.804C818.508 800.81 818.522 800.815 818.532 800.824C818.572 800.852 818.63 800.896 818.703 800.952C818.761 800.996 818.823 801.052 818.895 801.112C819.124 801.3 819.347 801.496 819.562 801.7C819.811 801.932 820.089 802.204 820.357 802.506C820.432 802.592 820.504 802.676 820.58 802.77C820.652 802.862 820.733 802.952 820.801 803.04C820.892 803.162 820.987 803.288 821.074 803.418C821.112 803.48 821.16 803.544 821.196 803.606C821.307 803.772 821.403 803.942 821.494 804.114C821.534 804.192 821.572 804.278 821.606 804.362C821.709 804.592 821.791 804.824 821.841 805.06C821.857 805.11 821.868 805.161 821.874 805.214V805.225C821.891 805.292 821.896 805.365 821.902 805.44C821.935 805.785 821.893 806.133 821.779 806.46C821.743 806.558 821.709 806.658 821.665 806.756C821.578 806.954 821.478 807.156 821.358 807.342C821.319 807.412 821.271 807.484 821.227 807.554C821.177 807.628 821.124 807.698 821.079 807.764C821.016 807.853 820.949 807.939 820.878 808.022C820.817 808.106 820.755 808.19 820.686 808.266C820.591 808.38 820.5 808.487 820.401 808.59C820.345 808.658 820.285 808.728 820.22 808.788C820.159 808.858 820.094 808.92 820.038 808.976C819.941 809.074 819.864 809.148 819.797 809.212L819.637 809.354C819.615 809.377 819.585 809.389 819.554 809.389H818.332V810.96H819.869C820.211 810.96 820.538 810.838 820.803 810.612C820.892 810.534 821.285 810.192 821.751 809.676C821.766 809.659 821.787 809.647 821.809 809.641L826.051 808.408C826.069 808.403 826.089 808.402 826.108 808.405C826.127 808.409 826.145 808.417 826.161 808.428C826.176 808.44 826.189 808.455 826.198 808.472C826.206 808.49 826.211 808.509 826.211 808.528V809.43Z" fill="white"/>
</g>
</g>
<defs>
<clipPath id="clip0_64_167">
<rect width="1515" height="1141" fill="white" transform="translate(-3 -181)"/>
</clipPath>
<clipPath id="clip1_64_167">
<rect width="1506.04" height="120" fill="white" transform="translate(1508.02 963) rotate(180)"/>
</clipPath>
<clipPath id="clip2_64_167">
<rect width="27.8896" height="28" fill="white" transform="translate(678 793)"/>
</clipPath>
<clipPath id="clip3_64_167">
<rect width="27.8896" height="28" fill="white" transform="translate(740.581 793)"/>
</clipPath>
<clipPath id="clip4_64_167">
<rect width="27.8896" height="28" fill="white" transform="translate(803.163 793)"/>
</clipPath>
</defs>
</svg>
