<svg width="1269" height="396" viewBox="0 0 1269 396" fill="none" xmlns="http://www.w3.org/2000/svg">
<path d="M1203.45 221.11L1248.47 239.675L1267.04 284.668L1248.47 329.661L1203.45 348.227L1158.44 329.661L1139.87 284.668L1158.44 239.675L1203.45 221.11Z" stroke="#6D51A5" stroke-width="3"/>
<path d="M887.193 2L931.035 20.064L949.107 63.8859L931.035 107.708L887.193 125.772L843.352 107.708L825.28 63.8859L843.352 20.064L887.193 2Z" stroke="#6D51A5" stroke-width="3"/>
<path d="M35.4667 97.3378L59.0607 107.206L68.9334 130.79L59.0607 154.373L35.4667 164.242L11.8727 154.373L2 130.79L11.8727 107.206L35.4667 97.3378Z" stroke="#6D51A5" stroke-width="3"/>
<path d="M281.447 127.444L287.303 129.953L289.813 135.807L287.303 141.662L281.447 144.17L275.59 141.662L273.08 135.807L275.59 129.953L281.447 127.444Z" stroke="#6D51A5" stroke-width="3"/>
<path d="M33.7933 323.138L55.0447 332.002L63.9133 353.244L55.0447 374.486L33.7933 383.351L12.542 374.486L3.67334 353.244L12.542 332.002L33.7933 323.138Z" stroke="#6D51A5" stroke-width="3"/>
<path d="M438.74 214.419L456.477 221.779L463.84 239.508L456.477 257.238L438.74 264.597L421.003 257.238L413.64 239.508L421.003 221.779L438.74 214.419Z" stroke="#6D51A5" stroke-width="3"/>
<path d="M753.327 70.5763L780.602 81.7827L791.813 109.046L780.602 136.309L753.327 147.516L726.051 136.309L714.84 109.046L726.051 81.7827L753.327 70.5763Z" stroke="#6D51A5" stroke-width="3"/>
<path d="M259.693 227.8L290.483 240.512L303.2 271.287L290.483 302.063L259.693 314.775L228.904 302.063L216.187 271.287L228.904 240.512L259.693 227.8Z" stroke="#6D51A5" stroke-width="3"/>
<path d="M594.36 299.721L627.492 313.437L641.213 346.554L627.492 379.671L594.36 393.387L561.228 379.671L547.507 346.554L561.228 313.437L594.36 299.721Z" stroke="#6D51A5" stroke-width="3"/>
<path d="M544.16 114.064L553.698 117.911L557.547 127.444L553.698 136.978L544.16 140.825L534.622 136.978L530.773 127.444L534.622 117.911L544.16 114.064Z" stroke="#6D51A5" stroke-width="3"/>
<path d="M778.427 241.181L811.559 254.896L825.28 288.013L811.559 321.131L778.427 334.846L745.295 321.131L731.573 288.013L745.295 254.896L778.427 241.181Z" stroke="#6D51A5" stroke-width="3"/>
<path d="M1067.91 241.181L1077.45 245.028L1081.3 254.562L1077.45 264.095L1067.91 267.942L1058.38 264.095L1054.53 254.562L1058.38 245.028L1067.91 241.181Z" stroke="#6D51A5" stroke-width="3"/>
</svg>
