<svg width="1512" height="960" viewBox="0 0 1512 960" fill="none" xmlns="http://www.w3.org/2000/svg">
<path d="M1512 -181H-3V960H1512V-181Z" fill="#5A189A"/>
<path d="M707.367 83.205L754.5 102.982L774.195 150.313L754.5 197.643L707.367 217.42L660.233 197.643L640.538 150.313L660.233 102.982L707.367 83.205Z" stroke="#6D51A5" stroke-width="3"/>
<path d="M414.467 378.513L440.727 389.331L451.5 415.701L440.727 442.071L414.467 452.889L388.207 442.071L377.433 415.701L388.207 389.331L414.467 378.513Z" stroke="#6D51A5" stroke-width="3"/>
<path d="M1212.37 552.621L1231.39 560.566L1239.3 579.667L1231.39 598.768L1212.37 606.713L1193.34 598.768L1185.43 579.667L1193.34 560.566L1212.37 552.621Z" stroke="#6D51A5" stroke-width="3"/>
<path d="M444.767 522.194L488.87 540.45L507.05 584.738L488.87 629.026L444.767 647.282L400.663 629.026L382.483 584.738L400.663 540.45L444.767 522.194Z" stroke="#6D51A5" stroke-width="3"/>
<path d="M1156.82 92.84L1163.89 95.8827L1166.92 102.982L1163.89 110.082L1156.82 113.125L1149.75 110.082L1146.72 102.982L1149.75 95.8827L1156.82 92.84Z" stroke="#6D51A5" stroke-width="3"/>
<path d="M1382.38 843.365L1390.63 846.914L1394.17 855.197L1390.63 863.48L1382.38 867.03L1374.14 863.48L1370.6 855.197L1374.14 846.914L1382.38 843.365Z" stroke="#6D51A5" stroke-width="3"/>
<path d="M138.4 136.79L150.352 141.692L155.233 153.693L150.352 165.695L138.4 170.597L126.448 165.695L121.567 153.693L126.448 141.692L138.4 136.79Z" stroke="#6D51A5" stroke-width="3"/>
<path d="M507.05 60.723L522.537 67.1464L528.933 82.6978L522.537 98.2493L507.05 104.673L491.563 98.2493L485.167 82.6978L491.563 67.1464L507.05 60.723Z" stroke="#6D51A5" stroke-width="3"/>
<path d="M256.233 385.274L279.968 395.247L289.9 419.082L279.968 442.916L256.233 452.889L232.498 442.916L222.567 419.082L232.498 395.247L256.233 385.274Z" stroke="#6D51A5" stroke-width="3"/>
<path d="M914.417 660.805L951.282 676.187L966.6 713.206L951.282 750.225L914.417 765.607L877.552 750.225L862.233 713.206L877.552 676.187L914.417 660.805Z" stroke="#6D51A5" stroke-width="3"/>
<path d="M823.517 30.2964L840.182 37.2269L847.083 53.9616L840.182 70.6962L823.517 77.6267L806.852 70.6962L799.95 53.9616L806.852 37.2269L823.517 30.2964Z" stroke="#6D51A5" stroke-width="3"/>
<path d="M719.15 476.554L758.372 492.951L774.7 532.336L758.372 571.722L719.15 588.119L679.928 571.722L663.6 532.336L679.928 492.951L719.15 476.554Z" stroke="#6D51A5" stroke-width="3"/>
<path d="M1017.1 412.32L1027.87 416.715L1032.25 427.533L1027.87 438.352L1017.1 442.747L1006.33 438.352L1001.95 427.533L1006.33 416.715L1017.1 412.32Z" stroke="#6D51A5" stroke-width="3"/>
<path d="M611.417 -42.3896L632.795 -33.4307L641.717 -11.963L632.795 9.50474L611.417 18.4637L590.038 9.50474L581.117 -11.963L590.038 -33.4307L611.417 -42.3896Z" stroke="#6D51A5" stroke-width="3"/>
<path d="M842.033 222.999L887.315 241.762L906 287.233L887.315 332.704L842.033 351.467L796.752 332.704L778.067 287.233L796.752 241.762L842.033 222.999Z" stroke="#6D51A5" stroke-width="3"/>
<path d="M959.867 550.93L965.758 553.466L968.283 559.382L965.758 565.299L959.867 567.834L953.975 565.299L951.45 559.382L953.975 553.466L959.867 550.93Z" stroke="#6D51A5" stroke-width="3"/>
<path d="M752.817 723.348L763.59 727.743L767.967 738.562L763.59 749.38L752.817 753.775L742.043 749.38L737.667 738.562L742.043 727.743L752.817 723.348Z" stroke="#6D51A5" stroke-width="3"/>
<path d="M1377.33 481.625L1421.44 499.881L1439.62 544.169L1421.44 588.457L1377.33 606.713L1333.23 588.457L1315.05 544.169L1333.23 499.881L1377.33 481.625Z" stroke="#6D51A5" stroke-width="3"/>
<path d="M1109.68 792.653L1121.64 797.556L1126.52 809.557L1121.64 821.559L1109.68 826.461L1097.73 821.559L1092.85 809.557L1097.73 797.556L1109.68 792.653Z" stroke="#6D51A5" stroke-width="3"/>
<path d="M444.767 708.135L490.048 726.898L508.733 772.369L490.048 817.84L444.767 836.603L399.485 817.84L380.8 772.369L399.485 726.898L444.767 708.135Z" stroke="#6D51A5" stroke-width="3"/>
<path d="M358.917 167.216L383.83 177.697L394.267 202.714L383.83 227.732L358.917 238.212L334.003 227.732L323.567 202.714L334.003 177.697L358.917 167.216Z" stroke="#6D51A5" stroke-width="3"/>
<path d="M67.7 287.233L96.3167 299.065L108.1 327.802L96.3167 356.538L67.7 368.37L39.0833 356.538L27.3 327.802L39.0833 299.065L67.7 287.233Z" stroke="#6D51A5" stroke-width="3"/>
<path d="M66.0167 785.892L94.6333 797.725L106.417 826.461L94.6333 855.197L66.0167 867.03L37.4 855.197L25.6167 826.461L37.4 797.725L66.0167 785.892Z" stroke="#6D51A5" stroke-width="3"/>
<path d="M1437.93 77.6267L1462.85 88.107L1473.28 113.124L1462.85 138.142L1437.93 148.622L1413.02 138.142L1402.58 113.124L1413.02 88.107L1437.93 77.6267Z" stroke="#6D51A5" stroke-width="3"/>
<path d="M209.1 831.532L244.787 846.407L259.6 882.243L244.787 918.079L209.1 932.954L173.413 918.079L158.6 882.243L173.413 846.407L209.1 831.532Z" stroke="#6D51A5" stroke-width="3"/>
<path d="M1373.97 324.421L1395.35 333.38L1404.27 354.847L1395.35 376.315L1373.97 385.274L1352.59 376.315L1343.67 354.847L1352.59 333.38L1373.97 324.421Z" stroke="#6D51A5" stroke-width="3"/>
<path d="M609.733 195.953L644.242 210.321L658.55 244.973L644.242 279.626L609.733 293.994L575.225 279.626L560.917 244.973L575.225 210.321L609.733 195.953Z" stroke="#6D51A5" stroke-width="3"/>
<path d="M835.3 395.416L861.56 406.235L872.333 432.605L861.56 458.974L835.3 469.793L809.04 458.974L798.267 432.605L809.04 406.235L835.3 395.416Z" stroke="#6D51A5" stroke-width="3"/>
<path d="M798.267 823.08L833.953 837.955L848.767 873.791L833.953 909.627L798.267 924.502L762.58 909.627L747.767 873.791L762.58 837.955L798.267 823.08Z" stroke="#6D51A5" stroke-width="3"/>
<path d="M1224.15 331.182L1252.77 343.015L1264.55 371.751L1252.77 400.487L1224.15 412.32L1195.53 400.487L1183.75 371.751L1195.53 343.015L1224.15 331.182Z" stroke="#6D51A5" stroke-width="3"/>
<path d="M1010.37 60.723L1037.81 72.0485L1049.08 99.6015L1037.81 127.155L1010.37 138.48L982.928 127.155L971.65 99.6015L982.928 72.0485L1010.37 60.723Z" stroke="#6D51A5" stroke-width="3"/>
</svg>
