<svg width="1451" height="110" viewBox="0 0 1451 110" fill="none" xmlns="http://www.w3.org/2000/svg">
<path opacity="0.5" d="M1451 110L1451 94.19C1434.68 73.08 1416.31 53.14 1391.15 37.95C1326.24 -1.26999 1243.92 -0.999974 1169.15 18.42C1130.05 28.57 1093.73 44.49 1056.61 58.22C1005.25 77.22 950.268 104.22 892.411 107.89C846.904 110.74 803.43 98.4701 768.666 76.3301C728.793 50.9401 690.452 14.3301 638.607 3.33008C587.853 -7.45992 536.51 10.0201 489.095 27.6101C441.68 45.2001 394.767 66.6101 342.357 70.6601C267.394 76.5101 200.187 47.7801 130.383 31.8201C92.4807 23.1601 56.3359 25.6501 21.0821 39.3201C-7.06824 50.2101 -39.1593 66.2501 -55.0355 88.5601L-55.0355 110L1451 110Z" fill="#48137B"/>
</svg>
