<svg width="259" height="39" viewBox="0 0 259 39" fill="none" xmlns="http://www.w3.org/2000/svg">
<rect x="1.5" y="2.5" width="148" height="34" rx="7.5" fill="#FBFBFB" stroke="#E6E6E6" stroke-width="3"/>
<g filter="url(#filter0_d_151_5)">
<path d="M10.56 26V12H20.84V14.36H13.12V23.64H20.92V26H10.56ZM11.84 20V17.68H19.82V20H11.84ZM32.7052 26.2C31.8785 26.2 31.1585 26.0133 30.5452 25.64C29.9318 25.2667 29.4518 24.7267 29.1052 24.02C28.7718 23.3133 28.6052 22.4667 28.6052 21.48V15.46H31.0652V20.88C31.0652 21.56 31.1585 22.1333 31.3452 22.6C31.5452 23.0533 31.8385 23.4 32.2252 23.64C32.6252 23.88 33.1118 24 33.6852 24C34.0985 24 34.4785 23.9333 34.8252 23.8C35.1852 23.6667 35.4985 23.48 35.7652 23.24C36.0318 22.9867 36.2385 22.6933 36.3852 22.36C36.5452 22.0133 36.6252 21.6333 36.6252 21.22V15.46H39.0852V26H36.6852L36.6452 23.8L37.0852 23.56C36.9252 24.0267 36.6385 24.46 36.2252 24.86C35.8118 25.26 35.3052 25.5867 34.7052 25.84C34.1185 26.08 33.4518 26.2 32.7052 26.2ZM47.5167 30.4V15.46H49.9367L49.9967 17.86L49.5567 17.68C49.6501 17.28 49.9034 16.9 50.3167 16.54C50.7434 16.1667 51.2701 15.8667 51.8967 15.64C52.5234 15.4 53.1834 15.28 53.8767 15.28C54.9434 15.28 55.8767 15.5133 56.6767 15.98C57.4767 16.4467 58.1034 17.0867 58.5567 17.9C59.0234 18.7133 59.2567 19.6533 59.2567 20.72C59.2567 21.7733 59.0301 22.7133 58.5767 23.54C58.1234 24.3533 57.4901 25 56.6767 25.48C55.8634 25.9467 54.9367 26.18 53.8967 26.18C53.1634 26.18 52.4767 26.0533 51.8367 25.8C51.1967 25.5467 50.6567 25.2267 50.2167 24.84C49.7901 24.4533 49.5234 24.06 49.4167 23.66L50.0167 23.38V30.4H47.5167ZM53.3967 24C54.0901 24 54.6901 23.86 55.1967 23.58C55.7167 23.3 56.1234 22.9133 56.4167 22.42C56.7234 21.9267 56.8767 21.36 56.8767 20.72C56.8767 20.08 56.7301 19.52 56.4367 19.04C56.1434 18.5467 55.7367 18.16 55.2167 17.88C54.7101 17.6 54.1034 17.46 53.3967 17.46C52.7167 17.46 52.1101 17.6 51.5767 17.88C51.0567 18.1467 50.6501 18.5267 50.3567 19.02C50.0634 19.5133 49.9167 20.08 49.9167 20.72C49.9167 21.36 50.0634 21.9267 50.3567 22.42C50.6501 22.9133 51.0567 23.3 51.5767 23.58C52.1101 23.86 52.7167 24 53.3967 24ZM66.737 26V11.2H69.197V17.94L68.577 18.14C68.7237 17.6333 69.0104 17.1667 69.437 16.74C69.877 16.3 70.4104 15.94 71.037 15.66C71.6637 15.38 72.3237 15.24 73.017 15.24C73.9237 15.24 74.6837 15.42 75.297 15.78C75.9104 16.14 76.3637 16.6467 76.657 17.3C76.9637 17.9533 77.117 18.7333 77.117 19.64V26H74.657V19.96C74.657 19.4 74.557 18.9333 74.357 18.56C74.157 18.1733 73.8637 17.88 73.477 17.68C73.1037 17.48 72.6637 17.3867 72.157 17.4C71.7304 17.4 71.337 17.4733 70.977 17.62C70.617 17.7667 70.3037 17.9667 70.037 18.22C69.7704 18.46 69.5637 18.7333 69.417 19.04C69.2837 19.3467 69.217 19.6667 69.217 20V26H67.977C67.6704 26 67.4104 26 67.197 26C66.997 26 66.8437 26 66.737 26ZM90.6653 26.2C89.4786 26.2 88.4253 25.9667 87.5053 25.5C86.5853 25.02 85.8586 24.3667 85.3253 23.54C84.8053 22.7133 84.5453 21.7733 84.5453 20.72C84.5453 19.6667 84.8053 18.7267 85.3253 17.9C85.8586 17.0733 86.5853 16.4267 87.5053 15.96C88.4253 15.48 89.4786 15.24 90.6653 15.24C91.852 15.24 92.9053 15.48 93.8253 15.96C94.7453 16.4267 95.4653 17.0733 95.9853 17.9C96.5186 18.7267 96.7853 19.6667 96.7853 20.72C96.7853 21.7733 96.5186 22.7133 95.9853 23.54C95.4653 24.3667 94.7453 25.02 93.8253 25.5C92.9053 25.9667 91.852 26.2 90.6653 26.2ZM90.6653 24.02C91.3453 24.02 91.9586 23.8733 92.5053 23.58C93.0653 23.2867 93.4986 22.8933 93.8053 22.4C94.1253 21.9067 94.2853 21.3467 94.2853 20.72C94.2853 20.08 94.1253 19.5133 93.8053 19.02C93.4986 18.5133 93.0653 18.12 92.5053 17.84C91.9586 17.56 91.3453 17.42 90.6653 17.42C89.9986 17.42 89.3853 17.5667 88.8253 17.86C88.2653 18.14 87.8253 18.5267 87.5053 19.02C87.1853 19.5133 87.032 20.08 87.0453 20.72C87.032 21.3467 87.1853 21.9067 87.5053 22.4C87.8253 22.8933 88.2653 23.2867 88.8253 23.58C89.3853 23.8733 89.9986 24.02 90.6653 24.02ZM104.26 26V15.46H106.68L106.74 19.02L106.24 18.54C106.413 17.9267 106.706 17.3733 107.12 16.88C107.546 16.3733 108.033 15.9733 108.58 15.68C109.126 15.3867 109.693 15.24 110.28 15.24C110.613 15.24 110.94 15.2733 111.26 15.34C111.58 15.4067 111.833 15.4933 112.02 15.6L111.36 18.26C111.146 18.1267 110.886 18.0267 110.58 17.96C110.286 17.88 109.986 17.84 109.68 17.84C109.253 17.84 108.86 17.92 108.5 18.08C108.14 18.2267 107.826 18.4333 107.56 18.7C107.306 18.9533 107.106 19.2467 106.96 19.58C106.813 19.9 106.74 20.2467 106.74 20.62V26H104.26ZM119.285 26V15.46H121.745V26H119.285ZM120.485 13.14C119.992 13.14 119.605 13.02 119.325 12.78C119.059 12.5267 118.925 12.1733 118.925 11.72C118.925 11.2933 119.065 10.9467 119.345 10.68C119.625 10.4133 120.005 10.28 120.485 10.28C120.979 10.28 121.365 10.4067 121.645 10.66C121.925 10.9 122.065 11.2533 122.065 11.72C122.065 12.1333 121.919 12.4733 121.625 12.74C121.345 13.0067 120.965 13.14 120.485 13.14ZM134.554 26.2C133.528 26.2 132.614 25.9667 131.814 25.5C131.028 25.02 130.401 24.3667 129.934 23.54C129.481 22.7133 129.254 21.7667 129.254 20.7C129.254 19.6467 129.488 18.7067 129.954 17.88C130.421 17.0533 131.061 16.4067 131.874 15.94C132.701 15.4733 133.641 15.24 134.694 15.24C135.321 15.24 135.894 15.32 136.414 15.48C136.948 15.64 137.408 15.8667 137.794 16.16C138.194 16.44 138.514 16.7533 138.754 17.1C138.994 17.4333 139.141 17.7867 139.194 18.16L138.614 18.1V15.46H141.074V26H138.594V23.32L139.134 23.34C139.068 23.6733 138.901 24.0133 138.634 24.36C138.381 24.6933 138.041 25 137.614 25.28C137.201 25.5467 136.734 25.7667 136.214 25.94C135.694 26.1133 135.141 26.2 134.554 26.2ZM135.214 24.02C135.894 24.02 136.494 23.88 137.014 23.6C137.548 23.32 137.961 22.9333 138.254 22.44C138.548 21.9333 138.694 21.3533 138.694 20.7C138.694 20.0733 138.548 19.5133 138.254 19.02C137.961 18.5267 137.548 18.14 137.014 17.86C136.494 17.5667 135.894 17.42 135.214 17.42C134.521 17.42 133.914 17.5667 133.394 17.86C132.874 18.14 132.468 18.5267 132.174 19.02C131.894 19.5133 131.754 20.0733 131.754 20.7C131.754 21.3533 131.894 21.9333 132.174 22.44C132.468 22.9333 132.874 23.32 133.394 23.6C133.914 23.88 134.521 24.02 135.214 24.02Z" fill="#7B2CBF"/>
</g>
<g filter="url(#filter1_d_151_5)">
<path d="M171.02 26.2C169.953 26.2 168.967 26.0267 168.06 25.68C167.153 25.3333 166.36 24.84 165.68 24.2C165.013 23.56 164.493 22.8 164.12 21.92C163.747 21.0267 163.56 20.0467 163.56 18.98C163.56 17.9533 163.753 17.0067 164.14 16.14C164.54 15.2733 165.08 14.52 165.76 13.88C166.453 13.2267 167.253 12.72 168.16 12.36C169.08 12 170.06 11.82 171.1 11.82C171.873 11.82 172.613 11.9267 173.32 12.14C174.04 12.3533 174.693 12.6333 175.28 12.98C175.88 13.3267 176.373 13.7133 176.76 14.14L175.16 16.1C174.773 15.7267 174.367 15.4133 173.94 15.16C173.513 14.8933 173.053 14.6867 172.56 14.54C172.08 14.3933 171.567 14.32 171.02 14.32C170.393 14.32 169.787 14.4333 169.2 14.66C168.613 14.8733 168.1 15.1867 167.66 15.6C167.22 16.0133 166.867 16.5067 166.6 17.08C166.347 17.6533 166.22 18.2933 166.22 19C166.22 19.7333 166.347 20.3933 166.6 20.98C166.867 21.5533 167.233 22.0467 167.7 22.46C168.167 22.86 168.707 23.1733 169.32 23.4C169.933 23.6133 170.593 23.72 171.3 23.72C171.887 23.72 172.427 23.64 172.92 23.48C173.413 23.32 173.86 23.12 174.26 22.88C174.66 22.6267 175.027 22.3533 175.36 22.06L176.62 24.14C176.273 24.4733 175.807 24.8 175.22 25.12C174.647 25.44 173.993 25.7 173.26 25.9C172.527 26.1 171.78 26.2 171.02 26.2ZM184.034 26V11.2H186.514V26H184.034ZM198.894 26.2C198.068 26.2 197.348 26.0133 196.734 25.64C196.121 25.2667 195.641 24.7267 195.294 24.02C194.961 23.3133 194.794 22.4667 194.794 21.48V15.46H197.254V20.88C197.254 21.56 197.348 22.1333 197.534 22.6C197.734 23.0533 198.028 23.4 198.414 23.64C198.814 23.88 199.301 24 199.874 24C200.288 24 200.668 23.9333 201.014 23.8C201.374 23.6667 201.688 23.48 201.954 23.24C202.221 22.9867 202.428 22.6933 202.574 22.36C202.734 22.0133 202.814 21.6333 202.814 21.22V15.46H205.274V26H202.874L202.834 23.8L203.274 23.56C203.114 24.0267 202.828 24.46 202.414 24.86C202.001 25.26 201.494 25.5867 200.894 25.84C200.308 26.08 199.641 26.2 198.894 26.2ZM219.926 26.2C219.379 26.2 218.846 26.1267 218.326 25.98C217.819 25.82 217.359 25.6133 216.946 25.36C216.546 25.1067 216.206 24.8267 215.926 24.52C215.659 24.2 215.492 23.9 215.426 23.62L216.166 23.44L216.086 25.96H213.706V11.2H216.186V17.9L215.586 17.78C215.666 17.4733 215.832 17.1733 216.086 16.88C216.339 16.5867 216.666 16.32 217.066 16.08C217.466 15.8267 217.912 15.6267 218.406 15.48C218.899 15.32 219.412 15.24 219.946 15.24C220.972 15.24 221.892 15.4733 222.706 15.94C223.519 16.4067 224.166 17.0533 224.646 17.88C225.126 18.7067 225.366 19.6467 225.366 20.7C225.366 21.7667 225.126 22.7133 224.646 23.54C224.179 24.3667 223.539 25.02 222.726 25.5C221.912 25.9667 220.979 26.2 219.926 26.2ZM219.486 24.02C220.179 24.02 220.786 23.88 221.306 23.6C221.826 23.3067 222.232 22.9133 222.526 22.42C222.819 21.9133 222.966 21.34 222.966 20.7C222.966 20.06 222.819 19.4933 222.526 19C222.232 18.5067 221.826 18.12 221.306 17.84C220.786 17.56 220.179 17.42 219.486 17.42C218.806 17.42 218.199 17.56 217.666 17.84C217.146 18.12 216.739 18.5067 216.446 19C216.152 19.4933 216.006 20.06 216.006 20.7C216.006 21.34 216.152 21.9133 216.446 22.42C216.739 22.9133 217.146 23.3067 217.666 23.6C218.199 23.88 218.806 24.02 219.486 24.02ZM231.4 26V19.7H232.489L236.647 24.623L236.485 24.659C236.455 24.479 236.431 24.296 236.413 24.11C236.395 23.918 236.377 23.723 236.359 23.525C236.347 23.327 236.335 23.123 236.323 22.913C236.317 22.703 236.311 22.49 236.305 22.274C236.305 22.052 236.305 21.824 236.305 21.59V19.7H237.466V26H236.359L232.183 21.149L232.381 21.086C232.399 21.332 232.417 21.554 232.435 21.752C232.453 21.95 232.471 22.133 232.489 22.301C232.507 22.463 232.519 22.616 232.525 22.76C232.537 22.898 232.546 23.036 232.552 23.174C232.558 23.306 232.561 23.435 232.561 23.561V26H231.4ZM241.289 26V19.7H242.459V26H241.289ZM241.784 23.453V22.391H245.51V23.453H241.784ZM241.829 20.78V19.7H245.897V20.78H241.829ZM250.921 26V20.78H248.869V19.7H254.197V20.78H252.091V26H250.921Z" fill="white"/>
</g>
<defs>
<filter id="filter0_d_151_5" x="6.56" y="10.28" width="138.514" height="28.12" filterUnits="userSpaceOnUse" color-interpolation-filters="sRGB">
<feFlood flood-opacity="0" result="BackgroundImageFix"/>
<feColorMatrix in="SourceAlpha" type="matrix" values="0 0 0 0 0 0 0 0 0 0 0 0 0 0 0 0 0 0 127 0" result="hardAlpha"/>
<feOffset dy="4"/>
<feGaussianBlur stdDeviation="2"/>
<feComposite in2="hardAlpha" operator="out"/>
<feColorMatrix type="matrix" values="0 0 0 0 0 0 0 0 0 0 0 0 0 0 0 0 0 0 0.1 0"/>
<feBlend mode="normal" in2="BackgroundImageFix" result="effect1_dropShadow_151_5"/>
<feBlend mode="normal" in="SourceGraphic" in2="effect1_dropShadow_151_5" result="shape"/>
</filter>
<filter id="filter1_d_151_5" x="159.56" y="11.2" width="98.637" height="23" filterUnits="userSpaceOnUse" color-interpolation-filters="sRGB">
<feFlood flood-opacity="0" result="BackgroundImageFix"/>
<feColorMatrix in="SourceAlpha" type="matrix" values="0 0 0 0 0 0 0 0 0 0 0 0 0 0 0 0 0 0 127 0" result="hardAlpha"/>
<feOffset dy="4"/>
<feGaussianBlur stdDeviation="2"/>
<feComposite in2="hardAlpha" operator="out"/>
<feColorMatrix type="matrix" values="0 0 0 0 0 0 0 0 0 0 0 0 0 0 0 0 0 0 0.05 0"/>
<feBlend mode="normal" in2="BackgroundImageFix" result="effect1_dropShadow_151_5"/>
<feBlend mode="normal" in="SourceGraphic" in2="effect1_dropShadow_151_5" result="shape"/>
</filter>
</defs>
</svg>
