<svg width="243" height="38" viewBox="0 0 243 38" fill="none" xmlns="http://www.w3.org/2000/svg">
<g id="Group 5">
<rect id="Rectangle 19" x="1.5" y="2.5" width="142" height="34" rx="7.5" fill="#FBFBFB" stroke="#E6E6E6" stroke-width="3"/>
<path id="Vector 4" d="M76 3V9.5V11M76 28.5V36.5" stroke="#E6E6E6" stroke-width="2"/>
<g id="Euphoria" filter="url(#filter0_d_48_34)">
<path d="M7.56 26V12H17.84V14.36H10.12V23.64H17.92V26H7.56ZM8.84 20V17.68H16.82V20H8.84ZM29.7052 26.2C28.8785 26.2 28.1585 26.0133 27.5452 25.64C26.9318 25.2667 26.4518 24.7267 26.1052 24.02C25.7718 23.3133 25.6052 22.4667 25.6052 21.48V15.46H28.0652V20.88C28.0652 21.56 28.1585 22.1333 28.3452 22.6C28.5452 23.0533 28.8385 23.4 29.2252 23.64C29.6252 23.88 30.1118 24 30.6852 24C31.0985 24 31.4785 23.9333 31.8252 23.8C32.1852 23.6667 32.4985 23.48 32.7652 23.24C33.0318 22.9867 33.2385 22.6933 33.3852 22.36C33.5452 22.0133 33.6252 21.6333 33.6252 21.22V15.46H36.0852V26H33.6852L33.6452 23.8L34.0852 23.56C33.9252 24.0267 33.6385 24.46 33.2252 24.86C32.8118 25.26 32.3052 25.5867 31.7052 25.84C31.1185 26.08 30.4518 26.2 29.7052 26.2ZM44.5167 30.4V15.46H46.9367L46.9967 17.86L46.5567 17.68C46.6501 17.28 46.9034 16.9 47.3167 16.54C47.7434 16.1667 48.2701 15.8667 48.8967 15.64C49.5234 15.4 50.1834 15.28 50.8767 15.28C51.9434 15.28 52.8767 15.5133 53.6767 15.98C54.4767 16.4467 55.1034 17.0867 55.5567 17.9C56.0234 18.7133 56.2567 19.6533 56.2567 20.72C56.2567 21.7733 56.0301 22.7133 55.5767 23.54C55.1234 24.3533 54.4901 25 53.6767 25.48C52.8634 25.9467 51.9367 26.18 50.8967 26.18C50.1634 26.18 49.4767 26.0533 48.8367 25.8C48.1967 25.5467 47.6567 25.2267 47.2167 24.84C46.7901 24.4533 46.5234 24.06 46.4167 23.66L47.0167 23.38V30.4H44.5167ZM50.3967 24C51.0901 24 51.6901 23.86 52.1967 23.58C52.7167 23.3 53.1234 22.9133 53.4167 22.42C53.7234 21.9267 53.8767 21.36 53.8767 20.72C53.8767 20.08 53.7301 19.52 53.4367 19.04C53.1434 18.5467 52.7367 18.16 52.2167 17.88C51.7101 17.6 51.1034 17.46 50.3967 17.46C49.7167 17.46 49.1101 17.6 48.5767 17.88C48.0567 18.1467 47.6501 18.5267 47.3567 19.02C47.0634 19.5133 46.9167 20.08 46.9167 20.72C46.9167 21.36 47.0634 21.9267 47.3567 22.42C47.6501 22.9133 48.0567 23.3 48.5767 23.58C49.1101 23.86 49.7167 24 50.3967 24ZM63.737 26V11.2H66.197V17.94L65.577 18.14C65.7237 17.6333 66.0104 17.1667 66.437 16.74C66.877 16.3 67.4104 15.94 68.037 15.66C68.6637 15.38 69.3237 15.24 70.017 15.24C70.9237 15.24 71.6837 15.42 72.297 15.78C72.9104 16.14 73.3637 16.6467 73.657 17.3C73.9637 17.9533 74.117 18.7333 74.117 19.64V26H71.657V19.96C71.657 19.4 71.557 18.9333 71.357 18.56C71.157 18.1733 70.8637 17.88 70.477 17.68C70.1037 17.48 69.6637 17.3867 69.157 17.4C68.7304 17.4 68.337 17.4733 67.977 17.62C67.617 17.7667 67.3037 17.9667 67.037 18.22C66.7704 18.46 66.5637 18.7333 66.417 19.04C66.2837 19.3467 66.217 19.6667 66.217 20V26H64.977C64.6704 26 64.4104 26 64.197 26C63.997 26 63.8437 26 63.737 26ZM87.6653 26.2C86.4786 26.2 85.4253 25.9667 84.5053 25.5C83.5853 25.02 82.8586 24.3667 82.3253 23.54C81.8053 22.7133 81.5453 21.7733 81.5453 20.72C81.5453 19.6667 81.8053 18.7267 82.3253 17.9C82.8586 17.0733 83.5853 16.4267 84.5053 15.96C85.4253 15.48 86.4786 15.24 87.6653 15.24C88.852 15.24 89.9053 15.48 90.8253 15.96C91.7453 16.4267 92.4653 17.0733 92.9853 17.9C93.5186 18.7267 93.7853 19.6667 93.7853 20.72C93.7853 21.7733 93.5186 22.7133 92.9853 23.54C92.4653 24.3667 91.7453 25.02 90.8253 25.5C89.9053 25.9667 88.852 26.2 87.6653 26.2ZM87.6653 24.02C88.3453 24.02 88.9586 23.8733 89.5053 23.58C90.0653 23.2867 90.4986 22.8933 90.8053 22.4C91.1253 21.9067 91.2853 21.3467 91.2853 20.72C91.2853 20.08 91.1253 19.5133 90.8053 19.02C90.4986 18.5133 90.0653 18.12 89.5053 17.84C88.9586 17.56 88.3453 17.42 87.6653 17.42C86.9986 17.42 86.3853 17.5667 85.8253 17.86C85.2653 18.14 84.8253 18.5267 84.5053 19.02C84.1853 19.5133 84.032 20.08 84.0453 20.72C84.032 21.3467 84.1853 21.9067 84.5053 22.4C84.8253 22.8933 85.2653 23.2867 85.8253 23.58C86.3853 23.8733 86.9986 24.02 87.6653 24.02ZM101.26 26V15.46H103.68L103.74 19.02L103.24 18.54C103.413 17.9267 103.706 17.3733 104.12 16.88C104.546 16.3733 105.033 15.9733 105.58 15.68C106.126 15.3867 106.693 15.24 107.28 15.24C107.613 15.24 107.94 15.2733 108.26 15.34C108.58 15.4067 108.833 15.4933 109.02 15.6L108.36 18.26C108.146 18.1267 107.886 18.0267 107.58 17.96C107.286 17.88 106.986 17.84 106.68 17.84C106.253 17.84 105.86 17.92 105.5 18.08C105.14 18.2267 104.826 18.4333 104.56 18.7C104.306 18.9533 104.106 19.2467 103.96 19.58C103.813 19.9 103.74 20.2467 103.74 20.62V26H101.26ZM116.285 26V15.46H118.745V26H116.285ZM117.485 13.14C116.992 13.14 116.605 13.02 116.325 12.78C116.059 12.5267 115.925 12.1733 115.925 11.72C115.925 11.2933 116.065 10.9467 116.345 10.68C116.625 10.4133 117.005 10.28 117.485 10.28C117.979 10.28 118.365 10.4067 118.645 10.66C118.925 10.9 119.065 11.2533 119.065 11.72C119.065 12.1333 118.919 12.4733 118.625 12.74C118.345 13.0067 117.965 13.14 117.485 13.14ZM131.554 26.2C130.528 26.2 129.614 25.9667 128.814 25.5C128.028 25.02 127.401 24.3667 126.934 23.54C126.481 22.7133 126.254 21.7667 126.254 20.7C126.254 19.6467 126.488 18.7067 126.954 17.88C127.421 17.0533 128.061 16.4067 128.874 15.94C129.701 15.4733 130.641 15.24 131.694 15.24C132.321 15.24 132.894 15.32 133.414 15.48C133.948 15.64 134.408 15.8667 134.794 16.16C135.194 16.44 135.514 16.7533 135.754 17.1C135.994 17.4333 136.141 17.7867 136.194 18.16L135.614 18.1V15.46H138.074V26H135.594V23.32L136.134 23.34C136.068 23.6733 135.901 24.0133 135.634 24.36C135.381 24.6933 135.041 25 134.614 25.28C134.201 25.5467 133.734 25.7667 133.214 25.94C132.694 26.1133 132.141 26.2 131.554 26.2ZM132.214 24.02C132.894 24.02 133.494 23.88 134.014 23.6C134.548 23.32 134.961 22.9333 135.254 22.44C135.548 21.9333 135.694 21.3533 135.694 20.7C135.694 20.0733 135.548 19.5133 135.254 19.02C134.961 18.5267 134.548 18.14 134.014 17.86C133.494 17.5667 132.894 17.42 132.214 17.42C131.521 17.42 130.914 17.5667 130.394 17.86C129.874 18.14 129.468 18.5267 129.174 19.02C128.894 19.5133 128.754 20.0733 128.754 20.7C128.754 21.3533 128.894 21.9333 129.174 22.44C129.468 22.9333 129.874 23.32 130.394 23.6C130.914 23.88 131.521 24.02 132.214 24.02Z" fill="#7B2CBF"/>
</g>
<path id="Vector 3" d="M40 2.5V37M111 2.5V37" stroke="#E6E6E6" stroke-width="2"/>
<g id="ClubNFT" filter="url(#filter1_d_48_34)">
<path d="M159.84 26.2C158.813 26.2 157.86 26.0267 156.98 25.68C156.1 25.3333 155.327 24.84 154.66 24.2C154.007 23.56 153.5 22.8 153.14 21.92C152.78 21.04 152.6 20.0667 152.6 19C152.6 17.9867 152.793 17.0533 153.18 16.2C153.567 15.3333 154.093 14.58 154.76 13.94C155.44 13.2867 156.22 12.78 157.1 12.42C157.993 12.06 158.94 11.88 159.94 11.88C160.713 11.88 161.46 11.9933 162.18 12.22C162.9 12.4333 163.553 12.72 164.14 13.08C164.727 13.44 165.2 13.8333 165.56 14.26L164.18 15.9C163.753 15.5 163.313 15.1667 162.86 14.9C162.407 14.62 161.927 14.4067 161.42 14.26C160.927 14.1 160.407 14.02 159.86 14.02C159.193 14.02 158.553 14.14 157.94 14.38C157.327 14.62 156.787 14.96 156.32 15.4C155.853 15.84 155.48 16.3667 155.2 16.98C154.933 17.5933 154.8 18.2667 154.8 19C154.8 19.7867 154.933 20.4933 155.2 21.12C155.48 21.7467 155.86 22.28 156.34 22.72C156.833 23.1467 157.4 23.48 158.04 23.72C158.68 23.9467 159.373 24.06 160.12 24.06C160.707 24.06 161.253 23.98 161.76 23.82C162.267 23.66 162.727 23.4533 163.14 23.2C163.567 22.9467 163.953 22.6667 164.3 22.36L165.36 24.14C165.027 24.4733 164.573 24.8 164 25.12C163.427 25.44 162.78 25.7 162.06 25.9C161.34 26.1 160.6 26.2 159.84 26.2ZM172.956 26V11.2H175.016V26H172.956ZM187.445 26.2C186.632 26.2 185.919 26.0133 185.305 25.64C184.692 25.2533 184.212 24.7133 183.865 24.02C183.532 23.3133 183.365 22.4733 183.365 21.5V15.5H185.425V20.86C185.425 21.5933 185.532 22.22 185.745 22.74C185.959 23.2467 186.279 23.6333 186.705 23.9C187.132 24.1667 187.659 24.3 188.285 24.3C188.739 24.3 189.159 24.2267 189.545 24.08C189.932 23.9333 190.265 23.7267 190.545 23.46C190.839 23.1933 191.065 22.8733 191.225 22.5C191.399 22.1267 191.485 21.7133 191.485 21.26V15.5H193.545V26H191.485V23.8L191.845 23.56C191.685 24.0133 191.399 24.4467 190.985 24.86C190.572 25.26 190.065 25.5867 189.465 25.84C188.865 26.08 188.192 26.2 187.445 26.2ZM207.943 26.2C207.396 26.2 206.863 26.12 206.343 25.96C205.836 25.8 205.376 25.5933 204.963 25.34C204.55 25.0733 204.203 24.7867 203.923 24.48C203.656 24.16 203.483 23.86 203.403 23.58L204.083 23.38V25.94H202.023V11.2H204.083V17.9L203.603 17.8C203.683 17.5067 203.85 17.2133 204.103 16.92C204.356 16.6267 204.683 16.36 205.083 16.12C205.483 15.8667 205.93 15.6667 206.423 15.52C206.916 15.36 207.43 15.28 207.963 15.28C209.003 15.28 209.93 15.5133 210.743 15.98C211.57 16.4467 212.223 17.0933 212.703 17.92C213.183 18.7333 213.423 19.6667 213.423 20.72C213.423 21.7733 213.183 22.7133 212.703 23.54C212.236 24.3667 211.59 25.02 210.763 25.5C209.936 25.9667 208.996 26.2 207.943 26.2ZM207.683 24.3C208.416 24.3 209.063 24.1467 209.623 23.84C210.183 23.52 210.623 23.0933 210.943 22.56C211.276 22.0133 211.443 21.4 211.443 20.72C211.443 20.04 211.283 19.4333 210.963 18.9C210.643 18.3533 210.196 17.9267 209.623 17.62C209.063 17.3133 208.416 17.16 207.683 17.16C206.95 17.16 206.296 17.3133 205.723 17.62C205.163 17.9267 204.716 18.3533 204.383 18.9C204.063 19.4333 203.903 20.04 203.903 20.72C203.903 21.4 204.063 22.0133 204.383 22.56C204.716 23.0933 205.163 23.52 205.723 23.84C206.296 24.1467 206.95 24.3 207.683 24.3ZM219.538 26V19.7H220.447L224.803 24.857L224.695 24.938C224.665 24.776 224.641 24.602 224.623 24.416C224.605 24.224 224.587 24.026 224.569 23.822C224.557 23.612 224.545 23.396 224.533 23.174C224.527 22.946 224.521 22.715 224.515 22.481C224.515 22.247 224.515 22.01 224.515 21.77V19.7H225.487V26H224.56L220.267 21.032L220.33 20.906C220.348 21.17 220.366 21.41 220.384 21.626C220.402 21.836 220.42 22.028 220.438 22.202C220.456 22.376 220.468 22.535 220.474 22.679C220.486 22.817 220.495 22.946 220.501 23.066C220.507 23.18 220.51 23.285 220.51 23.381V26H219.538ZM229.382 26V19.7H230.354V26H229.382ZM229.769 23.354V22.418H233.495V23.354H229.769ZM229.814 20.636V19.7H233.9V20.636H229.814ZM238.899 26V20.636H236.883V19.7H241.941V20.636H239.871V26H238.899Z" fill="white"/>
</g>
</g>
<defs>
<filter id="filter0_d_48_34" x="3.56" y="10.28" width="138.514" height="28.12" filterUnits="userSpaceOnUse" color-interpolation-filters="sRGB">
<feFlood flood-opacity="0" result="BackgroundImageFix"/>
<feColorMatrix in="SourceAlpha" type="matrix" values="0 0 0 0 0 0 0 0 0 0 0 0 0 0 0 0 0 0 127 0" result="hardAlpha"/>
<feOffset dy="4"/>
<feGaussianBlur stdDeviation="2"/>
<feComposite in2="hardAlpha" operator="out"/>
<feColorMatrix type="matrix" values="0 0 0 0 0 0 0 0 0 0 0 0 0 0 0 0 0 0 0.1 0"/>
<feBlend mode="normal" in2="BackgroundImageFix" result="effect1_dropShadow_48_34"/>
<feBlend mode="normal" in="SourceGraphic" in2="effect1_dropShadow_48_34" result="shape"/>
</filter>
<filter id="filter1_d_48_34" x="148.6" y="11.2" width="97.3409" height="23" filterUnits="userSpaceOnUse" color-interpolation-filters="sRGB">
<feFlood flood-opacity="0" result="BackgroundImageFix"/>
<feColorMatrix in="SourceAlpha" type="matrix" values="0 0 0 0 0 0 0 0 0 0 0 0 0 0 0 0 0 0 127 0" result="hardAlpha"/>
<feOffset dy="4"/>
<feGaussianBlur stdDeviation="2"/>
<feComposite in2="hardAlpha" operator="out"/>
<feColorMatrix type="matrix" values="0 0 0 0 0 0 0 0 0 0 0 0 0 0 0 0 0 0 0.05 0"/>
<feBlend mode="normal" in2="BackgroundImageFix" result="effect1_dropShadow_48_34"/>
<feBlend mode="normal" in="SourceGraphic" in2="effect1_dropShadow_48_34" result="shape"/>
</filter>
</defs>
</svg>
