<svg width="1530" height="161" viewBox="0 0 1530 161" fill="none" xmlns="http://www.w3.org/2000/svg">
<path d="M0.810535 131.221L51.4884 139.633C102.166 148.045 203.522 164.869 305.411 159.755C407.295 154.846 509.718 127.793 611.836 113.248C713.954 98.7021 815.778 96.2534 917.284 106.927C1018.79 117.6 1119.98 141.395 1221.58 147.968C1323.19 154.541 1425.21 143.891 1476.22 138.771L1527.23 133.446L1529.57 37.0807L1478.72 35.8447C1427.87 34.6086 1326.16 32.1366 1224.46 29.6646C1122.75 27.1925 1021.05 24.7205 919.342 22.2484C817.637 19.7764 715.933 17.3043 614.228 14.8323C512.523 12.3602 410.819 9.88819 309.114 7.41614C207.409 4.94409 105.705 2.47205 54.8523 1.23602L4 0L0.810535 131.221Z" fill="#6F1EBD"/>
</svg>
