<svg width="1460" height="110" viewBox="0 0 1460 110" fill="none" xmlns="http://www.w3.org/2000/svg">
<path opacity="0.5" d="M-52 0V15.81C-35.62 36.92 -17.1736 56.86 8.0894 72.05C73.2566 111.27 155.9 111 230.971 91.58C270.22 81.43 306.684 65.51 343.955 51.78C395.514 32.78 450.715 5.78 508.801 2.11C554.488 -0.74 598.135 11.53 633.037 33.67C673.067 59.06 711.56 95.67 763.611 106.67C814.565 117.46 866.112 99.98 913.714 82.39C961.317 64.8 1008.42 43.39 1061.03 39.34C1136.29 33.49 1203.77 62.22 1273.85 78.18C1311.9 86.84 1348.19 84.35 1383.58 70.68C1411.84 59.79 1444.06 43.75 1460 21.44V0H-52Z" fill="#48137B"/>
</svg>
