<svg width="1512" height="120" viewBox="0 0 1512 120" fill="none" xmlns="http://www.w3.org/2000/svg">
<path opacity="0.25" d="M0 0V46.29C60.2154 68.49 130.523 78.46 199.08 74.29C287.734 68.92 370.856 40.98 459.648 36.79C552.686 32.43 645.548 53.67 734.58 72.05C821.86 90.05 908.838 96.93 998.424 85.13C1043.97 79.13 1086.43 67.29 1130.03 55.79C1246.76 25 1402.38 -14.29 1512 52.47V0H0Z" fill="#48137B"/>
<path opacity="0.5" d="M0 0V15.81C16.38 36.92 34.8264 56.86 60.0894 72.05C125.257 111.27 207.9 111 282.971 91.58C322.22 81.43 358.684 65.51 395.955 51.78C447.514 32.78 502.715 5.78 560.801 2.11C606.488 -0.74 650.135 11.53 685.037 33.67C725.067 59.06 763.56 95.67 815.611 106.67C866.565 117.46 918.112 99.98 965.714 82.39C1013.32 64.8 1060.42 43.39 1113.03 39.34C1188.29 33.49 1255.77 62.22 1325.85 78.18C1363.9 86.84 1400.19 84.35 1435.58 70.68C1463.84 59.79 1496.06 43.75 1512 21.44V0H0Z" fill="#48137B"/>
<path d="M0 0V5.63C188.912 59 395.753 71.32 599.546 42.57C653.726 34.93 705.676 22.45 760.334 16.11C834.674 7.48 902.059 28.35 968.94 51.51C1043.19 77.22 1116.36 95.24 1198.51 90C1307.54 83 1415.81 44.29 1512 5.19V0H0Z" fill="#48137B"/>
</svg>
